<svg xmlns="http://www.w3.org/2000/svg" viewBox="0 0 56 56"><defs><style>.cls-1{fill:#0071bc;}.cls-2{fill:#fff;}</style></defs><title>アセット 4</title><g id="レイヤー_2" data-name="レイヤー 2"><g id="レイヤー_1-2" data-name="レイヤー 1"><rect class="cls-1" width="56" height="56" rx="9.03" ry="9.03"/><path class="cls-2" d="M25.6,16.88v1.83a.44.44,0,0,1-.44.44H19.48a.44.44,0,0,0-.44.44v5.68a.44.44,0,0,1-.44.44H16.76a.44.44,0,0,1-.44-.44V19.6a.44.44,0,0,0-.44-.44H10.19a.44.44,0,0,1-.44-.44V16.88a.44.44,0,0,1,.44-.44h5.68a.44.44,0,0,0,.44-.44V10.31a.44.44,0,0,1,.44-.44h1.83a.44.44,0,0,1,.44.44V16a.44.44,0,0,0,.44.44h5.68A.44.44,0,0,1,25.6,16.88Z"/><path class="cls-2" d="M30.84,16.44h15a.44.44,0,0,1,.44.44v1.83a.44.44,0,0,1-.44.44h-15a.44.44,0,0,1-.44-.44V16.88A.44.44,0,0,1,30.84,16.44Z"/><path class="cls-2" d="M24.92,44.23l-1.3,1.3a.44.44,0,0,1-.63,0l-5-5a.44.44,0,0,0-.63,0l-5,5a.44.44,0,0,1-.63,0l-1.3-1.3a.44.44,0,0,1,0-.63l5-5a.44.44,0,0,0,0-.63l-5-5a.44.44,0,0,1,0-.63l1.3-1.3a.44.44,0,0,1,.63,0l5,5a.44.44,0,0,0,.63,0l5-5a.44.44,0,0,1,.63,0l1.3,1.3a.44.44,0,0,1,0,.63l-5,5a.44.44,0,0,0,0,.63l5,5A.44.44,0,0,1,24.92,44.23Z"/><path class="cls-2" d="M30.84,37h15a.44.44,0,0,1,.44.44v1.83a.44.44,0,0,1-.44.44h-15a.44.44,0,0,1-.44-.44V37.4A.44.44,0,0,1,30.84,37Zm9.64-4.3a2.15,2.15,0,1,1-2.15-2.15A2.16,2.16,0,0,1,40.48,32.66Zm0,11.32a2.15,2.15,0,1,1-2.15-2.15A2.17,2.17,0,0,1,40.48,44Z"/></g></g></svg>