<svg xmlns="http://www.w3.org/2000/svg" viewBox="0 0 56 56"><defs><style>.cls-1{fill:#f15a24;}.cls-2{fill:#fff;}</style></defs><title>アセット 2</title><g id="レイヤー_2" data-name="レイヤー 2"><g id="レイヤー_1-2" data-name="レイヤー 1"><rect class="cls-1" width="56" height="56" rx="9.03" ry="9.03"/><path class="cls-2" d="M40.48,21.09H21.39l10.82-4.9a1.52,1.52,0,1,0-.7-1.6L15.94,21.09h-.42A3.52,3.52,0,0,0,12,24.61V39.11a3.52,3.52,0,0,0,3.52,3.52h25A3.52,3.52,0,0,0,44,39.11V24.61A3.52,3.52,0,0,0,40.48,21.09ZM17.62,35.8a1.2,1.2,0,1,1,.44-1.64A1.2,1.2,0,0,1,17.62,35.8Zm.44-5.38a1.2,1.2,0,1,1-.44-1.64A1.2,1.2,0,0,1,18.06,30.42Zm3.24,8a1.2,1.2,0,1,1,1.2-1.2A1.2,1.2,0,0,1,21.3,38.43Zm0-4.94a1.2,1.2,0,1,1,1.2-1.2A1.2,1.2,0,0,1,21.3,33.49Zm0-4.95a1.2,1.2,0,1,1,1.2-1.2A1.2,1.2,0,0,1,21.3,28.54Zm5.32,6.82a1.2,1.2,0,1,1-.44-1.64A1.2,1.2,0,0,1,26.62,35.36Zm-.44-4.51a1.2,1.2,0,1,1,.44-1.64A1.2,1.2,0,0,1,26.18,30.86ZM40.89,38.2H30.33V36.75H40.89V38.2Zm0-2.64H30.33V34.11H40.89v1.45Zm0-2.64H30.33V31.47H40.89v1.45Zm0-3.73H30.33V25.83H40.89v3.37Z"/></g></g></svg>