<svg xmlns="http://www.w3.org/2000/svg" viewBox="0 0 458 464.05"><defs><style>.cls-1{opacity:0.1;}.cls-2{fill:#f7931e;}.cls-3{fill:#ffe137;stroke:#edcb00;stroke-miterlimit:10;stroke-width:16px;}.cls-4{fill:#fff;}</style></defs><title>アセット 3</title><g id="レイヤー_2" data-name="レイヤー 2"><g id="レイヤー_1-2" data-name="レイヤー 1"><path class="cls-1" d="M438.09,432c-18.67-3.93-54.56-6.32-93-6.32H166.4c-38.44,0-74.34,2.38-93,6.32-7.7,1.62-11.91,3.38-11.91,5.21,0,3.48,6.31,6.68,31.85,9.23,3.63.36,3,1-1.31,1.25-11.77.74-12.74,1.76-19.88,3a58.53,58.53,0,0,1-9.47.8c-12.86,0-38.79.19-42.4.62a10.42,10.42,0,0,0-1.25.21,61.75,61.75,0,0,1-10.48,1.78c-5.33.42-8.56.82-8.56,1.1,0,1.06,22.31,1.06,37.4,1.25,5.11.07,11.42.27,17.53.52a56.77,56.77,0,0,1,11.25,1.56c13.31,3.27,45.67,5.57,83.35,5.52,46.9-.06,85.57-3.81,87.43-8.49.31-.79-1.13-1-2.05-2.29-.55-.79,2.92-1,8.3-1q6.22,0,12.53,0C363,452.31,450,445.57,450,437.25,450,435.42,445.79,433.66,438.09,432Z"/><path class="cls-2" d="M94.85,69.89s-26.48,15-42.1,17-38.7,2-38.7,13c0,5,9.82,13.79,23.58,20.46,0,0-7.59,5.52-2.59,11.52s51.32,6.65,51.32,6.65l8.3-14.06.19-.09C127.44,107.87,94.85,69.89,94.85,69.89Z"/><path class="cls-3" d="M249,144.48h-.08a4.82,4.82,0,0,1-4.41-6.81,91.5,91.5,0,0,0,8.13-41C251,47.94,210.93,8.66,162.17,8a91.76,91.76,0,0,0-49.56,169.77,4.82,4.82,0,0,1,.21,8C72.94,214.33,48,255.25,48,300.72a125.4,125.4,0,0,0,12.32,54c19.32,40.77,56.47,65.5,96.25,65.5h184.9c39.78,0,76.93-24.72,96.25-65.5a125.4,125.4,0,0,0,12.32-54C450,214.43,360,144.48,249,144.48Z"/><circle cx="125.62" cy="83.89" r="16.75" transform="translate(-6.31 157.48) rotate(-62.89)"/><circle class="cls-4" cx="116.39" cy="80.84" r="3.45"/></g></g></svg>