<svg xmlns="http://www.w3.org/2000/svg" viewBox="0 0 721.49 185.29"><defs><style>.cls-1{fill:none;}</style></defs><title>アセット 1</title><g id="レイヤー_2" data-name="レイヤー 2"><g id="レイヤー_1-2" data-name="レイヤー 1"><rect class="cls-1" width="185.29" height="185.29"/><path d="M121,75.57c-.3-2.38-11.58-5.94-14.85-8s-4.75-8-14.54-8h0c-9.79,0-11.28,5.94-14.54,8s-14.55,5.64-14.85,8,7.12,12.77,29.39,12.77h0C113.88,88.34,121.3,77.95,121,75.57Z"/><path d="M138.16,57c-.7-5.28-4.37-9.16-8.19-8.65s-6.35,5.2-5.65,10.48,4.37,9.16,8.19,8.65S138.87,62.27,138.16,57Zm-9-.48c-.88.2-1.84-.75-2.14-2.11s.17-2.62,1-2.82,1.84.75,2.14,2.11S130,56.31,129.12,56.51Z"/><path d="M53.23,48.34C49.41,47.83,45.75,51.7,45,57s1.83,10,5.65,10.48,7.49-3.37,8.19-8.65S57.05,48.84,53.23,48.34Zm3,6.06c-.3,1.36-1.26,2.31-2.14,2.11S52.74,55,53,53.69s1.26-2.31,2.14-2.11S56.53,53,56.23,54.4Z"/><path d="M42.55,150.54a2.65,2.65,0,0,0-2,.86c-.61.68-.77,1.42-.77,4.51s.16,3.83.77,4.51a2.65,2.65,0,0,0,2,.86,2.6,2.6,0,0,0,2-.86c.61-.68.79-1.42.79-4.51s-.18-3.83-.79-4.51A2.6,2.6,0,0,0,42.55,150.54Z"/><path d="M87.07,150.68H84.74a.62.62,0,0,0-.62.62v3a.62.62,0,0,0,.62.62h2.33a2.12,2.12,0,1,0,0-4.24Z"/><path d="M108.69,150.68H107a.62.62,0,0,0-.62.62v9.21a.62.62,0,0,0,.62.62h1.74a2.8,2.8,0,0,0,2.34-1c.59-.72.68-1.87.68-4.3s-.09-3.45-.68-4.17A2.8,2.8,0,0,0,108.69,150.68Z"/><path d="M182.78,123.85a8.83,8.83,0,0,1-5.92,2.65c-7.11,0-7.11-7.72-14.21-7.72s-7.1,7.72-14.21,7.72-7.1-7.72-14.21-7.72-7.1,7.72-14.21,7.72-7.1-7.72-14.21-7.72-7.1,7.72-14.21,7.72-7.1-7.72-14.21-7.72-7.1,7.72-14.21,7.72-7.1-7.72-14.21-7.72-7.1,7.72-14.21,7.72-7.1-7.72-14.21-7.72-5.7,7.87-12.8,7.87c-2.7,0-4.28-2.26-5.46-3A1.49,1.49,0,0,0,0,124.9v45.76a14.63,14.63,0,0,0,14.63,14.63h156a14.63,14.63,0,0,0,14.63-14.63V125A1.51,1.51,0,0,0,182.78,123.85Z"/><path d="M33.79,163.2a.72.72,0,0,1-.72.72h-9a.72.72,0,0,1-.72-.72v-14.6a.72.72,0,0,1,.72-.72h1.69a.72.72,0,0,1,.72.72v11.8a.72.72,0,0,0,.72.72h5.83a.72.72,0,0,1,.72.72Z"/><path d="M46.88,162.3a6.23,6.23,0,0,1-8.67,0c-1.62-1.62-1.58-3.63-1.58-6.4s0-4.78,1.58-6.4a6.23,6.23,0,0,1,8.67,0c1.62,1.62,1.6,3.63,1.6,6.4S48.5,160.68,46.88,162.3Z"/><path d="M63.2,148.83l-4.84,14.59a.72.72,0,0,1-.69.5h-1.3a.72.72,0,0,1-.69-.5l-4.82-14.59a.72.72,0,0,1,.69-.95h1.71a.72.72,0,0,1,.69.51l2.75,8.91a.33.33,0,0,0,.64,0l2.75-8.91a.72.72,0,0,1,.69-.51h1.73A.72.72,0,0,1,63.2,148.83Z"/><path d="M77.19,150a.72.72,0,0,1-.72.72h-6a.72.72,0,0,0-.72.72v2.32a.72.72,0,0,0,.72.72h4.89a.72.72,0,0,1,.72.72v1.35a.72.72,0,0,1-.72.72H70.48a.72.72,0,0,0-.72.72v2.45a.72.72,0,0,0,.72.72h6a.72.72,0,0,1,.72.72v1.35a.72.72,0,0,1-.72.72H67.35a.72.72,0,0,1-.72-.72V148.61a.72.72,0,0,1,.72-.72h9.12a.72.72,0,0,1,.72.72Z"/><path d="M91.94,163.92H90a.72.72,0,0,1-.65-.4l-2.74-5.59a.72.72,0,0,0-.65-.4H84.84a.72.72,0,0,0-.72.72v5a.72.72,0,0,1-.72.72H81.71a.72.72,0,0,1-.72-.72V148.61a.72.72,0,0,1,.72-.72h5.56a4.85,4.85,0,0,1,5.2,4.91,4.29,4.29,0,0,1-2.3,3.94.71.71,0,0,0-.28.94l2.69,5.2A.72.72,0,0,1,91.94,163.92Z"/><path d="M113.22,162.39a5.84,5.84,0,0,1-4.24,1.53h-5.07a.72.72,0,0,1-.72-.72V148.61a.72.72,0,0,1,.72-.72H109a5.84,5.84,0,0,1,4.24,1.53c1.8,1.8,1.62,4,1.62,6.42S115,160.59,113.22,162.39Z"/><path d="M130.37,158.43a5.91,5.91,0,0,1-11.8,0v-9.82a.72.72,0,0,1,.72-.72H121a.72.72,0,0,1,.72.72v9.71a2.79,2.79,0,1,0,5.56,0v-9.71a.72.72,0,0,1,.72-.72h1.66a.72.72,0,0,1,.72.72Z"/><path d="M138,160.43a2.48,2.48,0,0,0,2,.83,2.55,2.55,0,0,0,2.56-1.79.73.73,0,0,1,.68-.48H145a.73.73,0,0,1,.7.94,5.59,5.59,0,0,1-5.69,4.13,5.88,5.88,0,0,1-4.33-1.76,4.64,4.64,0,0,1-1.31-2.41,29.53,29.53,0,0,1,0-8,4.55,4.55,0,0,1,1.31-2.41,5.88,5.88,0,0,1,4.33-1.76,5.57,5.57,0,0,1,5.69,4.13.73.73,0,0,1-.7.94h-1.73a.73.73,0,0,1-.68-.48,2.55,2.55,0,0,0-2.56-1.79,2.48,2.48,0,0,0-2,.83c-.65.7-.79,1.42-.79,4.53S137.4,159.73,138,160.43Z"/><path d="M161.11,163.92h-2a.72.72,0,0,1-.63-.37l-3.67-6.5a.34.34,0,0,0-.56-.05l-1.59,1.9a.72.72,0,0,0-.17.46v3.84a.72.72,0,0,1-.72.72h-1.69a.72.72,0,0,1-.72-.72V148.61a.72.72,0,0,1,.72-.72h1.69a.72.72,0,0,1,.72.72v5.29a.34.34,0,0,0,.61.22l4.83-6a.72.72,0,0,1,.56-.27h1.92a.72.72,0,0,1,.55,1.19l-4.18,5a.33.33,0,0,0,0,.38l4.94,8.38A.72.72,0,0,1,161.11,163.92Z"/><path d="M255,145V95.19a2.09,2.09,0,0,1,2.09-2.09h6.36a2.09,2.09,0,0,1,2.09,2.09v40.43a2.09,2.09,0,0,0,2.09,2.09h20.32A2.09,2.09,0,0,1,290,139.8V145a2.09,2.09,0,0,1-2.09,2.09H257.06A2.09,2.09,0,0,1,255,145Z"/><path d="M334.1,141.65a21,21,0,0,1-29.21,0c-5.46-5.46-5.31-12.21-5.31-21.55s-.15-16.08,5.31-21.55a21,21,0,0,1,29.21,0c5.46,5.46,5.39,12.21,5.39,21.55S339.56,136.19,334.1,141.65Zm-7.81-36.72a8.77,8.77,0,0,0-6.75-2.88,8.94,8.94,0,0,0-6.83,2.88c-2,2.28-2.58,4.78-2.58,15.17s.53,12.9,2.58,15.17a8.94,8.94,0,0,0,6.83,2.88,8.77,8.77,0,0,0,6.75-2.88c2-2.28,2.66-4.78,2.66-15.17S328.34,107.21,326.29,104.94Z"/><path d="M370.73,147.12h-4.87a2.09,2.09,0,0,1-2-1.44L347.42,95.85a2.09,2.09,0,0,1,2-2.75h6.49a2.09,2.09,0,0,1,2,1.47l9.65,31.31a.78.78,0,0,0,1.49,0l9.65-31.31a2.09,2.09,0,0,1,2-1.47h6.56a2.09,2.09,0,0,1,2,2.75l-16.52,49.84A2.09,2.09,0,0,1,370.73,147.12Z"/><path d="M400.61,145V95.19a2.09,2.09,0,0,1,2.09-2.09h31.4a2.09,2.09,0,0,1,2.09,2.09v5.23a2.09,2.09,0,0,1-2.09,2.09H413.24a2.09,2.09,0,0,0-2.09,2.09v8.49a2.09,2.09,0,0,0,2.09,2.09h17.14a2.09,2.09,0,0,1,2.09,2.09v5.23a2.09,2.09,0,0,1-2.09,2.09H413.24a2.09,2.09,0,0,0-2.09,2.09v8.94a2.09,2.09,0,0,0,2.09,2.09H434.1a2.09,2.09,0,0,1,2.09,2.09V145a2.09,2.09,0,0,1-2.09,2.09H402.7A2.09,2.09,0,0,1,400.61,145Z"/><path d="M477.08,145.95l-9.4-19.2a2.09,2.09,0,0,0-1.88-1.17h-4.19a2.09,2.09,0,0,0-2.09,2.09V145a2.09,2.09,0,0,1-2.09,2.09h-6.36A2.09,2.09,0,0,1,449,145V95.19a2.09,2.09,0,0,1,2.09-2.09h19.08c11,0,17.52,7.51,17.52,16.54A14.44,14.44,0,0,1,479.76,123a2.1,2.1,0,0,0-.93,2.83l9.46,18.27a2.09,2.09,0,0,1-1.86,3.05H479A2.09,2.09,0,0,1,477.08,145.95Zm-7.62-43.44h-7.85a2.09,2.09,0,0,0-2.09,2.09v10.08a2.09,2.09,0,0,0,2.09,2.09h7.85c4.63,0,7.66-3,7.66-7.13S474.08,102.51,469.46,102.51Z"/><path d="M557.53,142c-3.57,3.57-8.65,5.16-14.26,5.16H525.86a2.09,2.09,0,0,1-2.09-2.09V95.19a2.09,2.09,0,0,1,2.09-2.09h17.41c5.61,0,10.7,1.59,14.26,5.16,6.07,6.07,5.46,13.5,5.46,21.62S563.6,135.89,557.53,142Zm-7.36-36.11c-1.82-2.2-4.25-3.34-7.89-3.34h-5.88a2.09,2.09,0,0,0-2.09,2.09v31a2.09,2.09,0,0,0,2.09,2.09h5.88c3.64,0,6.07-1.14,7.89-3.34,2-2.43,2.28-6.3,2.28-14.49S552.14,108.27,550.17,105.84Z"/><path d="M595.41,147.57c-11.08,0-19.88-7.51-19.88-19V95.19a2.09,2.09,0,0,1,2.09-2.09H584a2.09,2.09,0,0,1,2.09,2.09v33c0,6.22,3.64,9.94,9.33,9.94s9.41-3.72,9.41-9.94v-33a2.09,2.09,0,0,1,2.09-2.09h6.29a2.09,2.09,0,0,1,2.09,2.09v33.42C615.29,140.06,606.49,147.57,595.41,147.57Z"/><path d="M647.81,147.57a19.8,19.8,0,0,1-14.57-5.92,15.63,15.63,0,0,1-4.4-8.12,73.69,73.69,0,0,1-.91-13.43,73.67,73.67,0,0,1,.91-13.43,15.34,15.34,0,0,1,4.4-8.12,19.8,19.8,0,0,1,14.57-5.92c9.53,0,16.77,5.11,19.31,14.44a2.1,2.1,0,0,1-2,2.63h-6.55a2.08,2.08,0,0,1-2-1.4c-1.35-3.83-4.14-6.27-8.69-6.27a8.34,8.34,0,0,0-6.75,2.81c-2.2,2.35-2.66,4.78-2.66,15.25s.46,12.9,2.66,15.25a8.34,8.34,0,0,0,6.75,2.81c4.55,0,7.34-2.43,8.69-6.27a2.08,2.08,0,0,1,2-1.4h6.55a2.1,2.1,0,0,1,2,2.63C664.57,142.47,657.28,147.57,647.81,147.57Z"/><path d="M710.17,146.05l-12.71-22.5a.81.81,0,0,0-1.33-.12l-5.74,6.86a2.09,2.09,0,0,0-.49,1.34V145a2.09,2.09,0,0,1-2.09,2.09h-6.36a2.09,2.09,0,0,1-2.09-2.09V95.19a2.09,2.09,0,0,1,2.09-2.09h6.36a2.09,2.09,0,0,1,2.09,2.09v19.14a.81.81,0,0,0,1.44.51l17-21a2.09,2.09,0,0,1,1.62-.77h7.36a2.09,2.09,0,0,1,1.61,3.43l-14.7,17.63a.76.76,0,0,0-.07.88L721.2,144a2.09,2.09,0,0,1-1.8,3.15H712A2.09,2.09,0,0,1,710.17,146.05Z"/></g></g></svg>