<svg xmlns="http://www.w3.org/2000/svg" viewBox="0 0 500.11 500.11"><defs><style>.cls-1{fill:none;}</style></defs><title>アセット 3</title><g id="レイヤー_2" data-name="レイヤー 2"><g id="レイヤー_1-2" data-name="レイヤー 1"><rect class="cls-1" width="500.11" height="500.11"/><path d="M326.6,204c-.8-6.41-31.26-16-40.07-21.64s-12.82-21.63-39.25-21.64h0c-26.43,0-30.44,16-39.25,21.64S168.73,197.56,167.93,204s19.23,34.46,79.32,34.46h0C307.37,238.43,327.4,210.38,326.6,204Z"/><path d="M372.92,153.81c-1.89-14.26-11.78-24.71-22.1-23.35s-17.14,14-15.25,28.3,11.78,24.71,22.1,23.35S374.81,168.07,372.92,153.81Zm-24.41-1.29c-2.38.53-5-2-5.78-5.69s.45-7.08,2.82-7.61,5,2,5.78,5.69S350.89,152,348.51,152.52Z"/><path d="M143.68,130.46c-10.31-1.37-20.2,9.08-22.1,23.35s4.93,26.93,15.25,28.3,20.2-9.08,22.1-23.35S154,131.83,143.68,130.46Zm8.09,16.36c-.82,3.67-3.41,6.22-5.78,5.69s-3.64-3.93-2.82-7.61,3.41-6.22,5.78-5.69S152.59,143.15,151.77,146.82Z"/><path d="M114.85,406.32a7.16,7.16,0,0,0-5.47,2.31c-1.64,1.82-2.07,3.83-2.07,12.16s.43,10.34,2.07,12.16a7.16,7.16,0,0,0,5.47,2.31,7,7,0,0,0,5.41-2.31c1.64-1.82,2.13-3.83,2.13-12.16s-.49-10.34-2.13-12.16A7,7,0,0,0,114.85,406.32Z"/><path d="M235,406.69h-6.29a1.68,1.68,0,0,0-1.68,1.68v8.08a1.68,1.68,0,0,0,1.68,1.68H235c3.71,0,6.14-2.37,6.14-5.72S238.72,406.69,235,406.69Z"/><path d="M293.38,406.69h-4.71a1.68,1.68,0,0,0-1.68,1.68v24.86a1.68,1.68,0,0,0,1.68,1.68h4.71a7.55,7.55,0,0,0,6.32-2.68c1.58-1.95,1.82-5,1.82-11.61s-.24-9.3-1.82-11.25A7.55,7.55,0,0,0,293.38,406.69Z"/><path d="M493.34,334.28c-4.45,3.94-9.45,7.15-16,7.15-19.18,0-19.18-20.84-38.36-20.84s-19.18,20.84-38.35,20.84-19.18-20.84-38.35-20.84S343.13,341.43,324,341.43s-19.18-20.84-38.35-20.84-19.18,20.84-38.35,20.84S228.08,320.6,208.9,320.6s-19.18,20.84-38.35,20.84S151.37,320.6,132.2,320.6,113,341.43,93.85,341.43,74.67,320.6,55.5,320.6s-19.17,20.84-38.35,20.84a20.23,20.23,0,0,1-11-3.33A4,4,0,0,0,0,341.49V460.63a39.49,39.49,0,0,0,39.49,39.49H460.63a39.49,39.49,0,0,0,39.49-39.49V337.36A4.09,4.09,0,0,0,493.34,334.28ZM91.2,440.49a2,2,0,0,1-2,2H65.05a2,2,0,0,1-1.95-1.95V401.1a2,2,0,0,1,2-2h4.55a2,2,0,0,1,1.95,1.95V433a2,2,0,0,0,2,2H89.25a2,2,0,0,1,2,2Zm35.33-2.43a16.81,16.81,0,0,1-23.41,0c-4.38-4.38-4.26-9.79-4.26-17.27s-.12-12.89,4.26-17.27a16.81,16.81,0,0,1,23.41,0c4.38,4.38,4.32,9.79,4.32,17.27S130.9,433.69,126.53,438.06Zm44.06-36.35-13.06,39.39a2,2,0,0,1-1.85,1.34h-3.51a2,2,0,0,1-1.85-1.34l-13-39.39a2,2,0,0,1,1.85-2.56h4.62a2,2,0,0,1,1.86,1.38l7.41,24a.9.9,0,0,0,1.72,0l7.41-24a2,2,0,0,1,1.86-1.38h4.68A2,2,0,0,1,170.59,401.71Zm37.75,3a2,2,0,0,1-2,2H190.23a2,2,0,0,0-2,2v6.25a2,2,0,0,0,2,2h13.19a2,2,0,0,1,2,2v3.64a2,2,0,0,1-2,2H190.23a2,2,0,0,0-2,2V433a2,2,0,0,0,2,2H206.4a2,2,0,0,1,1.95,1.95v3.64a2,2,0,0,1-2,2H181.78a2,2,0,0,1-2-2V401.1a2,2,0,0,1,2-2H206.4a2,2,0,0,1,1.95,1.95Zm39.82,37.7h-5.37a2,2,0,0,1-1.75-1.09l-7.38-15.08a2,2,0,0,0-1.75-1.09H229a2,2,0,0,0-2,2v13.37a2,2,0,0,1-2,2h-4.55a2,2,0,0,1-2-2V401.1a2,2,0,0,1,2-2h15c8.82,0,14,6,14,13.26A11.57,11.57,0,0,1,243.38,423a1.9,1.9,0,0,0-.76,2.53l7.27,14A2,2,0,0,1,248.16,442.44Zm57.44-4.13c-2.86,2.86-6.93,4.13-11.43,4.13H280.49a2,2,0,0,1-2-2V401.1a2,2,0,0,1,2-2h13.68c4.5,0,8.57,1.28,11.43,4.13,4.86,4.86,4.38,10.82,4.38,17.33S310.46,433.44,305.6,438.31Zm46.29-10.7c0,9.18-7.05,15.2-15.93,15.2s-15.93-6-15.93-15.2V401.1a2,2,0,0,1,2-2h4.55a2,2,0,0,1,2,2v26.2c0,5,2.92,8,7.48,8s7.54-3,7.54-8V401.1a2,2,0,0,1,2-2h4.49a2,2,0,0,1,2,2ZM372.61,433a6.68,6.68,0,0,0,5.41,2.25,6.87,6.87,0,0,0,6.9-4.84,2,2,0,0,1,1.83-1.3h4.68a2,2,0,0,1,1.88,2.53c-2.14,7.21-7.91,11.15-15.35,11.15a15.87,15.87,0,0,1-11.67-4.74,12.52,12.52,0,0,1-3.53-6.51,79.72,79.72,0,0,1,0-21.52,12.29,12.29,0,0,1,3.53-6.51A15.87,15.87,0,0,1,378,398.78c7.5,0,13.22,3.94,15.35,11.15a2,2,0,0,1-1.88,2.53h-4.68a2,2,0,0,1-1.83-1.3,6.87,6.87,0,0,0-6.9-4.84,6.69,6.69,0,0,0-5.41,2.25c-1.76,1.89-2.13,3.83-2.13,12.22S370.84,431.13,372.61,433Zm62.25,9.43h-5.3a2,2,0,0,1-1.7-1l-9.91-17.54a.93.93,0,0,0-1.52-.14l-4.28,5.12a2,2,0,0,0-.45,1.25v10.35a2,2,0,0,1-2,2h-4.55a2,2,0,0,1-2-2V401.1a2,2,0,0,1,2-2h4.55a2,2,0,0,1,2,2v14.29a.93.93,0,0,0,1.64.58l13-16.1a2,2,0,0,1,1.52-.72h5.18a2,2,0,0,1,1.5,3.2l-11.28,13.53a.89.89,0,0,0-.08,1l13.33,22.61A2,2,0,0,1,434.85,442.44Z"/></g></g></svg>